# Blender v2.83.4 OBJ File: ''
# www.blender.org
o Cone
v 0.000000 -1.000000 1.000000
v -0.195090 -1.000000 0.980785
v -0.382683 -1.000000 0.923880
v -0.555570 -1.000000 0.831470
v -0.707107 -1.000000 0.707107
v -0.831470 -1.000000 0.555570
v -0.923880 -1.000000 0.382683
v -0.980785 -1.000000 0.195090
v -1.000000 -1.000000 0.000000
v -0.980785 -1.000000 -0.195090
v -0.923880 -1.000000 -0.382683
v -0.831470 -1.000000 -0.555570
v -0.707107 -1.000000 -0.707107
v -0.555570 -1.000000 -0.831470
v -0.382683 -1.000000 -0.923880
v -0.195090 -1.000000 -0.980785
v 0.000000 -1.000000 -1.000000
v 0.195091 -1.000000 -0.980785
v 0.382684 -1.000000 -0.923879
v 0.555571 -1.000000 -0.831469
v 0.707107 -1.000000 -0.707106
v 0.831470 -1.000000 -0.555570
v 0.923880 -1.000000 -0.382683
v 0.000000 1.000000 0.000000
v 0.980785 -1.000000 -0.195089
v 1.000000 -1.000000 0.000001
v 0.980785 -1.000000 0.195091
v 0.923879 -1.000000 0.382684
v 0.831469 -1.000000 0.555571
v 0.707106 -1.000000 0.707108
v 0.555569 -1.000000 0.831470
v 0.382682 -1.000000 0.923880
v 0.195089 -1.000000 0.980786
v 0.000000 -1.000000 -0.000000
vt 0.337599 0.968568
vt 0.514298 0.485686
vt 0.380571 0.982189
vt 0.424572 0.991993
vt 0.469262 0.997906
vt 0.514298 0.999883
vt 0.345122 0.000117
vt 0.303243 0.016801
vt 0.262986 0.037088
vt 0.224661 0.060824
vt 0.188563 0.087824
vt 0.154967 0.117883
vt 0.124134 0.150769
vt 0.096300 0.186228
vt 0.071678 0.223990
vt 0.050458 0.263763
vt 0.032803 0.305241
vt 0.018849 0.348107
vt 0.008703 0.392030
vt 0.002443 0.436672
vt 0.000117 0.481692
vt 0.001744 0.526742
vt 0.007309 0.571476
vt 0.016772 0.615552
vt 0.030058 0.658629
vt 0.047066 0.700377
vt 0.067666 0.740474
vt 0.091698 0.778614
vt 0.118978 0.814502
vt 0.149297 0.847863
vt 0.182421 0.878440
vt 0.218096 0.905998
vt 0.256048 0.930326
vt 0.295984 0.951236
vt 0.851783 0.026163
vt 0.889265 0.051208
vt 0.743382 0.228967
vt 0.921141 0.083084
vt 0.946186 0.120566
vt 0.963437 0.162214
vt 0.972231 0.206427
vt 0.972231 0.251506
vt 0.963437 0.295719
vt 0.946186 0.337367
vt 0.921141 0.374849
vt 0.889265 0.406725
vt 0.851783 0.431770
vt 0.810135 0.449021
vt 0.765922 0.457816
vt 0.720843 0.457816
vt 0.676629 0.449021
vt 0.634981 0.431770
vt 0.597499 0.406725
vt 0.565623 0.374849
vt 0.540579 0.337367
vt 0.523327 0.295719
vt 0.514533 0.251506
vt 0.514533 0.206427
vt 0.523328 0.162214
vt 0.540579 0.120566
vt 0.565624 0.083084
vt 0.597499 0.051208
vt 0.634982 0.026163
vt 0.676629 0.008912
vt 0.720843 0.000117
vt 0.765922 0.000118
vt 0.810135 0.008912
vn 0.0000 -0.5033 0.8641
vn 0.0000 1.0000 0.0000
vn -0.1686 -0.5033 0.8475
vn -0.3307 -0.5033 0.7983
vn -0.4801 -0.5033 0.7185
vn -0.6110 -0.5033 0.6110
vn -0.7185 -0.5033 0.4801
vn -0.7983 -0.5033 0.3307
vn -0.8475 -0.5033 0.1686
vn -0.8641 -0.5033 0.0000
vn -0.8475 -0.5033 -0.1686
vn -0.7983 -0.5033 -0.3307
vn -0.7185 -0.5033 -0.4801
vn -0.6110 -0.5033 -0.6110
vn -0.4801 -0.5033 -0.7185
vn -0.3307 -0.5033 -0.7983
vn -0.1686 -0.5033 -0.8475
vn 0.0000 -0.5033 -0.8641
vn 0.1686 -0.5033 -0.8475
vn 0.3307 -0.5033 -0.7983
vn 0.4801 -0.5033 -0.7185
vn 0.6110 -0.5033 -0.6110
vn 0.7185 -0.5033 -0.4801
vn 0.7983 -0.5033 -0.3307
vn 0.8475 -0.5033 -0.1686
vn 0.8641 -0.5033 0.0000
vn 0.8475 -0.5033 0.1686
vn 0.7983 -0.5033 0.3307
vn 0.7185 -0.5033 0.4801
vn 0.6110 -0.5033 0.6110
vn 0.4801 -0.5033 0.7185
vn 0.3307 -0.5033 0.7983
vn 0.1686 -0.5033 0.8475
vn 0.0000 -1.0000 0.0000
s 1
f 1/1/1 24/2/2 2/3/3
f 2/3/3 24/2/2 3/4/4
f 3/4/4 24/2/2 4/5/5
f 4/5/5 24/2/2 5/6/6
f 5/7/6 24/2/2 6/8/7
f 6/8/7 24/2/2 7/9/8
f 7/9/8 24/2/2 8/10/9
f 8/10/9 24/2/2 9/11/10
f 9/11/10 24/2/2 10/12/11
f 10/12/11 24/2/2 11/13/12
f 11/13/12 24/2/2 12/14/13
f 12/14/13 24/2/2 13/15/14
f 13/15/14 24/2/2 14/16/15
f 14/16/15 24/2/2 15/17/16
f 15/17/16 24/2/2 16/18/17
f 16/18/17 24/2/2 17/19/18
f 17/19/18 24/2/2 18/20/19
f 18/20/19 24/2/2 19/21/20
f 19/21/20 24/2/2 20/22/21
f 20/22/21 24/2/2 21/23/22
f 21/23/22 24/2/2 22/24/23
f 22/24/23 24/2/2 23/25/24
f 23/25/24 24/2/2 25/26/25
f 25/26/25 24/2/2 26/27/26
f 26/27/26 24/2/2 27/28/27
f 27/28/27 24/2/2 28/29/28
f 28/29/28 24/2/2 29/30/29
f 29/30/29 24/2/2 30/31/30
f 30/31/30 24/2/2 31/32/31
f 31/32/31 24/2/2 32/33/32
f 32/33/32 24/2/2 33/34/33
f 33/34/33 24/2/2 1/1/1
f 1/35/1 2/36/3 34/37/34
f 2/36/3 3/38/4 34/37/34
f 3/38/4 4/39/5 34/37/34
f 4/39/5 5/40/6 34/37/34
f 5/40/6 6/41/7 34/37/34
f 6/41/7 7/42/8 34/37/34
f 7/42/8 8/43/9 34/37/34
f 8/43/9 9/44/10 34/37/34
f 9/44/10 10/45/11 34/37/34
f 10/45/11 11/46/12 34/37/34
f 11/46/12 12/47/13 34/37/34
f 12/47/13 13/48/14 34/37/34
f 13/48/14 14/49/15 34/37/34
f 14/49/15 15/50/16 34/37/34
f 15/50/16 16/51/17 34/37/34
f 16/51/17 17/52/18 34/37/34
f 17/52/18 18/53/19 34/37/34
f 18/53/19 19/54/20 34/37/34
f 19/54/20 20/55/21 34/37/34
f 20/55/21 21/56/22 34/37/34
f 21/56/22 22/57/23 34/37/34
f 22/57/23 23/58/24 34/37/34
f 23/58/24 25/59/25 34/37/34
f 25/59/25 26/60/26 34/37/34
f 26/60/26 27/61/27 34/37/34
f 27/61/27 28/62/28 34/37/34
f 28/62/28 29/63/29 34/37/34
f 29/63/29 30/64/30 34/37/34
f 30/64/30 31/65/31 34/37/34
f 31/65/31 32/66/32 34/37/34
f 32/66/32 33/67/33 34/37/34
f 33/67/33 1/35/1 34/37/34
